<svg xmlns="http://www.w3.org/2000/svg" xmlns:xlink="http://www.w3.org/1999/xlink" preserveAspectRatio="xMidYMid" width="292" height="47" viewBox="0 0 292 47"><path fill="#fff" fill-rule="evenodd" d="M289.297,9.832 C288.016,11.673 286.237,13.333 283.957,14.812 C283.597,14.613 283.417,14.332 283.417,13.972 L286.357,9.772 C286.357,9.412 286.117,9.073 285.637,8.752 C284.876,8.313 284.246,7.783 283.747,7.162 C283.246,6.543 282.997,5.812 282.997,4.972 C282.997,3.813 283.417,2.823 284.257,2.002 C285.097,1.183 286.136,0.772 287.377,0.772 C288.616,0.772 289.567,1.143 290.227,1.882 C290.887,2.623 291.217,3.573 291.217,4.732 C291.217,6.292 290.576,7.993 289.297,9.832 ZM275.297,46.012 C273.296,46.012 271.776,45.513 270.737,44.512 C269.696,43.513 268.976,42.172 268.577,40.492 C268.256,41.173 267.876,41.842 267.437,42.502 C266.996,43.162 266.466,43.753 265.847,44.272 C265.226,44.793 264.506,45.213 263.687,45.532 C262.866,45.852 261.917,46.012 260.837,46.012 C259.556,46.012 258.296,45.772 257.057,45.292 C255.816,44.812 254.687,44.032 253.667,42.952 C252.718,41.948 251.945,40.638 251.343,39.029 C250.567,40.334 249.616,41.503 248.487,42.532 C247.347,43.573 246.016,44.413 244.497,45.052 C242.976,45.692 241.197,46.012 239.157,46.012 C237.436,46.012 235.857,45.752 234.417,45.232 C232.977,44.713 231.726,43.903 230.667,42.802 C230.214,42.332 229.807,41.800 229.442,41.214 C228.859,42.427 228.207,43.376 227.487,44.062 C226.666,44.842 225.796,45.363 224.877,45.622 C223.956,45.882 223.056,46.012 222.177,46.012 C219.096,46.012 216.867,44.992 215.487,42.952 C214.107,40.912 213.417,38.193 213.417,34.792 C213.417,34.432 213.426,33.922 213.447,33.262 C213.466,32.602 213.477,31.912 213.477,31.192 C213.477,30.472 213.486,29.773 213.507,29.092 C213.526,28.413 213.537,27.873 213.537,27.472 C213.537,25.072 213.276,23.373 212.757,22.372 C212.236,21.373 211.476,20.872 210.477,20.872 C209.877,20.872 209.367,21.033 208.947,21.352 C208.527,21.673 208.176,22.093 207.897,22.612 C207.616,23.133 207.396,23.722 207.237,24.382 C207.076,25.042 206.976,25.713 206.937,26.392 L206.937,45.652 L198.297,45.652 L198.297,39.101 C197.529,40.376 196.594,41.522 195.487,42.532 C194.347,43.573 193.006,44.413 191.467,45.052 C189.926,45.692 188.137,46.012 186.097,46.012 C184.417,46.012 182.857,45.762 181.417,45.262 C179.977,44.763 178.726,43.963 177.667,42.862 C176.606,41.763 175.786,40.333 175.207,38.572 C174.626,36.813 174.337,34.693 174.337,32.212 C174.337,30.532 174.506,28.702 174.847,26.722 C175.186,24.742 175.816,22.912 176.737,21.232 C177.656,19.552 178.906,18.153 180.487,17.032 C182.066,15.913 184.117,15.352 186.637,15.352 C188.197,15.352 189.487,15.573 190.507,16.012 C191.527,16.453 192.337,17.002 192.937,17.662 C193.537,18.322 193.957,19.042 194.197,19.822 C194.437,20.602 194.557,21.352 194.557,22.072 C194.557,23.113 194.347,23.973 193.927,24.652 C193.507,25.333 192.937,25.672 192.217,25.672 C191.896,25.672 191.516,25.613 191.077,25.494 C190.636,25.375 190.196,25.196 189.757,24.958 C189.836,24.641 189.886,24.364 189.907,24.125 C189.926,23.887 189.937,23.570 189.937,23.174 C189.937,21.548 189.706,20.378 189.247,19.664 C188.786,18.950 188.197,18.592 187.477,18.592 C186.676,18.592 185.986,19.002 185.407,19.820 C184.826,20.637 184.346,21.675 183.967,22.931 C183.586,24.187 183.307,25.594 183.127,27.150 C182.947,28.706 182.857,30.222 182.857,31.698 C182.857,33.573 182.986,35.108 183.247,36.305 C183.506,37.502 183.896,38.439 184.417,39.117 C184.936,39.796 185.587,40.274 186.367,40.553 C187.147,40.833 188.036,40.972 189.037,40.972 C190.237,40.972 191.287,40.813 192.187,40.492 C193.087,40.173 193.897,39.742 194.617,39.202 C195.337,38.662 195.997,38.023 196.597,37.282 C197.183,36.560 197.748,35.788 198.297,34.970 L198.297,4.852 L206.937,3.652 L206.937,18.772 C207.856,17.373 208.896,16.462 210.057,16.042 C211.216,15.622 212.316,15.412 213.357,15.412 C214.476,15.412 215.547,15.592 216.567,15.952 C217.587,16.312 218.487,16.923 219.267,17.782 C220.047,18.643 220.656,19.783 221.097,21.202 C221.536,22.623 221.757,24.373 221.757,26.452 C221.757,26.973 221.746,27.622 221.727,28.402 C221.706,29.182 221.676,29.973 221.637,30.772 C221.596,31.573 221.566,32.353 221.547,33.112 C221.526,33.873 221.517,34.513 221.517,35.032 C221.517,36.753 221.727,38.043 222.147,38.902 C222.567,39.763 223.396,40.192 224.637,40.192 C225.316,40.192 225.876,40.063 226.317,39.802 C226.756,39.543 227.116,39.172 227.397,38.692 C227.596,38.350 227.770,37.964 227.919,37.540 C227.533,36.016 227.337,34.263 227.337,32.272 C227.337,30.553 227.526,28.702 227.907,26.722 C228.286,24.742 228.957,22.912 229.917,21.232 C230.877,19.552 232.176,18.153 233.817,17.032 C235.456,15.913 237.537,15.352 240.057,15.352 C241.977,15.352 243.456,15.652 244.497,16.252 C245.536,16.852 246.306,17.553 246.807,18.352 C247.306,19.153 247.606,19.933 247.707,20.692 C247.806,21.453 247.857,21.993 247.857,22.312 C247.857,24.112 247.527,25.693 246.867,27.052 C246.207,28.413 245.326,29.563 244.227,30.502 C243.126,31.443 241.866,32.163 240.447,32.662 C239.026,33.163 237.576,33.453 236.097,33.532 C236.136,36.213 236.586,38.122 237.447,39.262 C238.306,40.402 239.817,40.972 241.977,40.972 C243.177,40.972 244.236,40.813 245.157,40.492 C246.076,40.173 246.897,39.742 247.617,39.202 C248.337,38.662 248.997,38.023 249.597,37.282 C249.925,36.877 250.246,36.454 250.563,36.018 C250.374,34.833 250.277,33.528 250.277,32.092 C250.277,30.253 250.487,28.353 250.907,26.392 C251.327,24.433 251.987,22.633 252.887,20.992 C253.787,19.353 254.966,18.003 256.427,16.942 C257.886,15.883 259.656,15.352 261.737,15.352 C262.217,15.352 262.736,15.382 263.297,15.442 C263.856,15.502 264.396,15.643 264.917,15.862 C265.436,16.083 265.916,16.402 266.357,16.822 C266.796,17.242 267.137,17.812 267.377,18.532 L267.377,4.852 L276.017,3.652 L276.017,36.052 C276.017,37.732 276.246,38.842 276.707,39.382 C277.166,39.922 277.976,40.192 279.137,40.192 C279.617,40.192 280.016,40.113 280.337,39.952 C279.977,42.193 279.467,43.762 278.807,44.662 C278.147,45.562 276.977,46.012 275.297,46.012 ZM238.917,29.847 C239.796,29.390 240.556,28.792 241.197,28.055 C241.836,27.320 242.337,26.474 242.697,25.519 C243.057,24.563 243.237,23.528 243.237,22.414 C243.237,21.020 242.997,20.036 242.517,19.459 C242.037,18.881 241.516,18.592 240.957,18.592 C240.276,18.592 239.656,18.921 239.097,19.578 C238.536,20.235 238.047,21.110 237.627,22.205 C237.207,23.300 236.866,24.583 236.607,26.056 C236.346,27.529 236.176,29.060 236.097,30.652 C237.096,30.574 238.036,30.305 238.917,29.847 ZM267.377,21.352 C267.296,21.193 267.197,20.983 267.077,20.722 C266.957,20.463 266.777,20.212 266.537,19.972 C266.297,19.732 266.006,19.522 265.667,19.342 C265.326,19.162 264.917,19.072 264.437,19.072 C263.477,19.072 262.646,19.483 261.947,20.302 C261.246,21.123 260.687,22.143 260.267,23.362 C259.847,24.583 259.536,25.923 259.337,27.382 C259.136,28.843 259.037,30.232 259.037,31.552 C259.037,33.673 259.196,35.323 259.517,36.502 C259.836,37.683 260.226,38.542 260.687,39.082 C261.146,39.622 261.636,39.943 262.157,40.042 C262.676,40.143 263.117,40.192 263.477,40.192 C263.916,40.192 264.366,40.083 264.827,39.862 C265.286,39.643 265.706,39.313 266.087,38.872 C266.466,38.433 266.777,37.893 267.017,37.252 C267.257,36.613 267.377,35.853 267.377,34.972 L267.377,21.352 ZM167.537,43.822 C166.256,44.842 164.736,45.583 162.977,46.042 C161.216,46.502 159.296,46.732 157.217,46.732 C155.376,46.732 153.566,46.542 151.787,46.162 C150.006,45.782 148.427,45.163 147.047,44.302 C145.667,43.443 144.557,42.303 143.717,40.882 C142.877,39.463 142.457,37.732 142.457,35.692 C142.457,34.333 142.646,33.093 143.027,31.972 C143.406,30.853 143.927,29.913 144.587,29.152 C145.247,28.393 146.016,27.802 146.897,27.382 C147.776,26.962 148.697,26.752 149.657,26.752 C150.137,26.752 150.656,26.812 151.217,26.932 C151.776,27.052 152.336,27.262 152.897,27.562 C153.456,27.862 153.977,28.273 154.457,28.792 C154.937,29.313 155.316,29.953 155.597,30.712 C154.877,30.712 154.157,30.793 153.437,30.952 C152.717,31.113 152.066,31.393 151.487,31.792 C150.906,32.193 150.437,32.743 150.077,33.442 C149.717,34.143 149.537,35.032 149.537,36.112 C149.537,38.193 150.176,39.682 151.457,40.582 C152.736,41.482 154.337,41.932 156.257,41.932 C158.177,41.932 159.656,41.473 160.697,40.552 C161.736,39.633 162.257,38.053 162.257,35.812 C162.257,33.733 161.826,31.972 160.967,30.532 C160.106,29.092 159.017,27.832 157.697,26.752 C156.377,25.672 154.967,24.663 153.467,23.722 C151.967,22.783 150.557,21.763 149.237,20.662 C147.917,19.563 146.826,18.273 145.967,16.792 C145.106,15.313 144.677,13.492 144.677,11.332 C144.677,7.852 145.836,5.203 148.157,3.382 C150.476,1.563 153.636,0.652 157.637,0.652 C158.196,0.652 159.047,0.703 160.187,0.802 C161.327,0.903 162.467,1.203 163.607,1.702 C164.747,2.203 165.737,2.962 166.577,3.982 C167.417,5.002 167.837,6.412 167.837,8.212 C167.837,9.733 167.507,10.963 166.847,11.902 C166.187,12.843 165.236,13.312 163.997,13.312 C162.876,13.312 161.876,12.892 160.997,12.052 C161.556,11.653 161.987,11.073 162.287,10.312 C162.587,9.553 162.737,8.773 162.737,7.972 C162.737,6.733 162.336,5.713 161.537,4.912 C160.736,4.113 159.516,3.712 157.877,3.712 C156.077,3.712 154.776,4.213 153.977,5.212 C153.176,6.213 152.777,7.552 152.777,9.232 C152.777,11.193 153.246,12.793 154.187,14.032 C155.126,15.273 156.296,16.383 157.697,17.362 C159.096,18.343 160.607,19.273 162.227,20.152 C163.847,21.033 165.356,22.072 166.757,23.272 C168.156,24.472 169.326,25.923 170.267,27.622 C171.206,29.323 171.677,31.492 171.677,34.132 C171.677,36.373 171.306,38.293 170.567,39.892 C169.826,41.493 168.816,42.802 167.537,43.822 ZM138.097,24.232 C137.176,24.232 136.537,24.033 136.177,23.632 C135.817,23.233 135.536,22.803 135.337,22.342 C135.136,21.883 134.926,21.453 134.707,21.052 C134.486,20.653 134.096,20.452 133.537,20.452 C132.937,20.452 132.346,20.683 131.767,21.142 C131.186,21.603 130.576,22.173 129.937,22.852 L129.937,45.652 L121.297,45.652 L121.297,39.101 C120.529,40.376 119.594,41.522 118.487,42.532 C117.347,43.573 116.016,44.413 114.497,45.052 C112.976,45.692 111.197,46.012 109.157,46.012 C107.436,46.012 105.857,45.752 104.417,45.232 C102.977,44.713 101.726,43.903 100.667,42.802 C100.096,42.210 99.597,41.522 99.165,40.745 C99.162,40.750 99.160,40.757 99.157,40.762 C98.356,42.223 97.456,43.342 96.457,44.122 C95.456,44.902 94.436,45.412 93.397,45.652 C92.356,45.892 91.436,46.012 90.637,46.012 C87.556,46.012 85.396,45.163 84.157,43.462 C83.652,42.771 83.256,41.984 82.957,41.111 C82.207,42.400 81.374,43.406 80.457,44.122 C79.456,44.902 78.436,45.412 77.397,45.652 C76.356,45.892 75.436,46.012 74.637,46.012 C71.556,46.012 69.396,45.163 68.157,43.462 C67.252,42.223 66.682,40.687 66.437,38.862 C66.412,38.905 66.392,38.950 66.367,38.992 C65.587,40.312 64.627,41.493 63.487,42.532 C62.347,43.573 61.016,44.413 59.497,45.052 C57.976,45.692 56.197,46.012 54.157,46.012 C52.436,46.012 50.857,45.752 49.417,45.232 C47.977,44.713 46.726,43.903 45.667,42.802 C44.606,41.703 43.786,40.282 43.207,38.542 C42.626,36.802 42.337,34.713 42.337,32.272 C42.337,30.553 42.526,28.702 42.907,26.722 C43.286,24.742 43.957,22.912 44.917,21.232 C45.877,19.552 47.176,18.153 48.817,17.032 C50.456,15.913 52.537,15.352 55.057,15.352 C56.977,15.352 58.456,15.652 59.497,16.252 C60.536,16.852 61.306,17.553 61.807,18.352 C62.306,19.153 62.606,19.933 62.707,20.692 C62.806,21.453 62.857,21.993 62.857,22.312 C62.857,24.112 62.527,25.693 61.867,27.052 C61.207,28.413 60.326,29.563 59.227,30.502 C58.126,31.443 56.866,32.163 55.447,32.662 C54.026,33.163 52.576,33.453 51.097,33.532 C51.136,36.213 51.586,38.122 52.447,39.262 C53.306,40.402 54.817,40.972 56.977,40.972 C58.177,40.972 59.236,40.813 60.157,40.492 C61.076,40.173 61.897,39.742 62.617,39.202 C63.337,38.662 63.997,38.023 64.597,37.282 C65.183,36.560 65.748,35.788 66.297,34.970 L66.297,18.052 L64.377,18.052 L64.377,15.652 L66.297,15.652 L66.297,7.372 L74.937,6.172 L74.937,15.652 L78.597,15.652 L78.597,18.052 L74.937,18.052 L74.937,36.052 C74.937,37.732 75.166,38.842 75.627,39.382 C76.086,39.922 76.896,40.192 78.057,40.192 C79.216,40.192 80.187,39.693 80.967,38.692 C81.714,37.734 82.155,36.534 82.297,35.097 L82.297,18.052 L80.377,18.052 L80.377,15.652 L82.297,15.652 L82.297,7.372 L90.937,6.172 L90.937,15.652 L94.597,15.652 L94.597,18.052 L90.937,18.052 L90.937,36.052 C90.937,37.732 91.166,38.842 91.627,39.382 C92.086,39.922 92.896,40.192 94.057,40.192 C95.216,40.192 96.187,39.693 96.967,38.692 C97.322,38.237 97.605,37.725 97.824,37.161 C97.499,35.728 97.337,34.098 97.337,32.272 C97.337,30.553 97.526,28.702 97.907,26.722 C98.286,24.742 98.957,22.912 99.917,21.232 C100.877,19.552 102.176,18.153 103.817,17.032 C105.456,15.913 107.537,15.352 110.057,15.352 C111.977,15.352 113.456,15.652 114.497,16.252 C115.536,16.852 116.306,17.553 116.807,18.352 C117.306,19.153 117.606,19.933 117.707,20.692 C117.806,21.453 117.857,21.993 117.857,22.312 C117.857,24.112 117.527,25.693 116.867,27.052 C116.207,28.413 115.326,29.563 114.227,30.502 C113.126,31.443 111.866,32.163 110.447,32.662 C109.026,33.163 107.576,33.453 106.097,33.532 C106.136,36.213 106.586,38.122 107.447,39.262 C108.306,40.402 109.817,40.972 111.977,40.972 C113.177,40.972 114.236,40.813 115.157,40.492 C116.076,40.173 116.897,39.742 117.617,39.202 C118.337,38.662 118.997,38.023 119.597,37.282 C120.183,36.560 120.748,35.788 121.297,34.970 L121.297,15.652 L129.937,15.652 L129.937,19.372 C130.816,18.333 131.797,17.403 132.877,16.582 C133.957,15.763 135.136,15.352 136.417,15.352 C137.176,15.352 137.866,15.513 138.487,15.832 C139.106,16.153 139.646,16.573 140.107,17.092 C140.566,17.613 140.926,18.183 141.187,18.802 C141.446,19.423 141.577,20.053 141.577,20.692 C141.577,21.573 141.307,22.383 140.767,23.122 C140.227,23.863 139.336,24.232 138.097,24.232 ZM53.917,29.847 C54.796,29.390 55.556,28.792 56.197,28.055 C56.836,27.320 57.337,26.474 57.697,25.519 C58.057,24.563 58.237,23.528 58.237,22.414 C58.237,21.020 57.997,20.036 57.517,19.459 C57.037,18.881 56.516,18.592 55.957,18.592 C55.276,18.592 54.656,18.921 54.097,19.578 C53.536,20.235 53.047,21.110 52.627,22.205 C52.207,23.300 51.866,24.583 51.607,26.056 C51.346,27.529 51.176,29.060 51.097,30.652 C52.096,30.574 53.036,30.305 53.917,29.847 ZM108.917,29.847 C109.796,29.390 110.556,28.792 111.197,28.055 C111.836,27.320 112.337,26.474 112.697,25.519 C113.057,24.563 113.237,23.528 113.237,22.414 C113.237,21.020 112.997,20.036 112.517,19.459 C112.037,18.881 111.516,18.592 110.957,18.592 C110.276,18.592 109.656,18.921 109.097,19.578 C108.536,20.235 108.047,21.110 107.627,22.205 C107.207,23.300 106.866,24.583 106.607,26.056 C106.346,27.529 106.176,29.060 106.097,30.652 C107.096,30.574 108.036,30.305 108.917,29.847 ZM37.577,41.542 C36.816,43.003 35.796,44.223 34.517,45.202 C33.236,46.182 31.616,46.672 29.657,46.672 C27.536,46.672 25.776,46.322 24.377,45.622 C22.976,44.923 22.277,43.653 22.277,41.812 C22.277,40.972 22.457,39.952 22.817,38.752 C23.736,39.553 24.546,40.113 25.247,40.432 C25.946,40.753 26.636,40.912 27.317,40.912 C28.076,40.912 28.716,40.663 29.237,40.162 C29.756,39.663 30.186,39.003 30.527,38.182 C30.866,37.363 31.106,36.453 31.247,35.452 C31.386,34.453 31.457,33.453 31.457,32.452 C31.457,31.492 31.367,30.442 31.187,29.302 C31.007,28.162 30.636,27.082 30.077,26.062 C29.516,25.042 28.727,24.193 27.707,23.512 C26.687,22.833 25.337,22.492 23.657,22.492 C23.417,22.492 23.036,22.503 22.517,22.522 C21.996,22.543 21.456,22.593 20.897,22.672 L20.897,45.652 L12.257,45.652 L12.257,7.492 L20.897,6.292 L20.897,19.612 L21.317,19.612 C22.356,19.612 23.286,19.353 24.107,18.832 C24.926,18.313 25.626,17.632 26.207,16.792 C26.786,15.952 27.236,15.013 27.557,13.972 C27.876,12.933 28.037,11.872 28.037,10.792 C28.037,9.873 27.866,8.973 27.527,8.092 C27.186,7.213 26.657,6.423 25.937,5.722 C25.217,5.023 24.296,4.462 23.177,4.042 C22.056,3.622 20.717,3.412 19.157,3.412 C17.516,3.412 15.926,3.652 14.387,4.132 C12.846,4.612 11.477,5.343 10.277,6.322 C9.077,7.303 8.106,8.533 7.367,10.012 C6.626,11.493 6.257,13.213 6.257,15.172 C6.257,16.413 6.347,17.422 6.527,18.202 C6.707,18.982 6.906,19.623 7.127,20.122 C7.346,20.623 7.577,21.013 7.817,21.292 C8.057,21.573 8.237,21.832 8.357,22.072 C5.957,22.072 4.056,21.523 2.657,20.422 C1.256,19.323 0.557,17.452 0.557,14.812 C0.557,12.933 1.056,11.143 2.057,9.442 C3.056,7.743 4.416,6.243 6.137,4.942 C7.856,3.643 9.887,2.602 12.227,1.822 C14.567,1.042 17.076,0.652 19.757,0.652 C22.157,0.652 24.257,0.963 26.057,1.582 C27.857,2.203 29.366,3.003 30.587,3.982 C31.806,4.963 32.717,6.082 33.317,7.342 C33.917,8.602 34.217,9.892 34.217,11.212 C34.217,12.813 33.846,14.362 33.107,15.862 C32.366,17.362 31.256,18.633 29.777,19.672 C31.496,19.912 32.987,20.413 34.247,21.172 C35.507,21.933 36.527,22.863 37.307,23.962 C38.087,25.063 38.666,26.293 39.047,27.652 C39.426,29.013 39.617,30.433 39.617,31.912 C39.617,33.433 39.467,35.053 39.167,36.772 C38.867,38.493 38.336,40.083 37.577,41.542 Z"/></svg>
