<svg width="24px" height="24px" viewBox="0 0 24 24" version="1.1" xmlns="http://www.w3.org/2000/svg" xmlns:xlink="http://www.w3.org/1999/xlink"><g stroke="none" stroke-width="1" fill="none" fill-rule="evenodd"><path d="M12,24 C18.627417,24 24,18.627417 24,12 C24,5.372583 18.627417,0 12,0 C5.372583,0 0,5.372583 0,12 C0,18.627417 5.372583,24 12,24 Z M17.2916488,17.75 C17.9396385,17.3210544 18.4942651,16.8146078 18.9297424,16.25 L5.07025756,16.25 C5.50573486,16.8146078 6.06036148,17.3210544 6.70835121,17.75 L17.2916488,17.75 Z M6.70835121,6.25 L17.2916488,6.25 C17.9396385,6.67894565 18.4942651,7.18539222 18.9297424,7.75 L5.07025756,7.75 C5.50573486,7.18539222 6.06036148,6.67894565 6.70835121,6.25 Z M4.06189375,11.25 L19.9381062,11.25 C19.9789567,11.4956957 20,11.7460047 20,12 C20,12.2539953 19.9789567,12.5043043 19.9381062,12.75 L4.06189375,12.75 C4.02104333,12.5043043 4,12.2539953 4,12 C4,11.7460047 4.02104333,11.4956957 4.06189375,11.25 Z" id="Combined-Shape" fill="#ffffff"></path></g></svg>
