<?xml version="1.0" encoding="UTF-8"?><svg width="61px" height="42px" viewBox="0 0 61 42" version="1.1" xmlns="http://www.w3.org/2000/svg" xmlns:xlink="http://www.w3.org/1999/xlink"><g id="satellys" fill="#e74c3c"><path d="M43.0429118,40.2213799 C53.118022,36.5745682 59.4508083,28.6052413 57.1875858,22.4213901 C54.9243634,16.2375388 44.9221685,14.1808618 34.8470583,17.8276735 C24.7719481,21.4744852 18.4391618,29.443812 20.7023843,35.6276633 C22.9656068,41.8115146 32.9678016,43.8681915 43.0429118,40.2213799 L43.0429118,40.2213799 L43.0429118,40.2213799 Z M19.3241144,24.5362705 C26.1095462,19.4512869 29.0340314,11.9292268 25.8561349,7.73527908 C22.6782383,3.5413314 14.6013648,4.2636588 7.81593299,9.34864248 C1.03050113,14.4336262 -1.89398407,21.9556863 1.28391248,26.149634 C4.46180902,30.3435816 12.5386825,29.6212542 19.3241144,24.5362705 L19.3241144,24.5362705 L19.3241144,24.5362705 Z M45.1335268,12.3605237 C52.9410395,11.5444477 58.9820569,8.15576187 58.6265165,4.79168203 C58.2709762,1.42760219 51.6535142,-0.637963086 43.8460014,0.178112871 C36.0384886,0.994188827 29.9974713,4.38287465 30.3530116,7.74695449 C30.708552,11.1110343 37.326014,13.1765996 45.1335268,12.3605237 L45.1335268,12.3605237 L45.1335268,12.3605237 Z"></path><path d="M49.0193439,39.0206091 C56.2444039,37.9798494 61,36.2094535 61,34.200476 C61,33.1897403 59.7962671,32.2393941 57.6799329,31.4119717 C55.7740769,34.2415529 52.7797367,36.9131894 49.0193439,39.0206091 Z M19.890746,29.2548405 C12.1576002,30.2748909 7,32.1083088 7,34.200476 C7,36.4319328 12.8672124,38.3690399 21.4687727,39.3388669 C20.5947729,38.4538522 19.9255714,37.428705 19.5027641,36.271989 C18.6954884,34.0634445 18.8859194,31.6474028 19.890746,29.2548405 Z"></path></g></svg>
