<?xml version="1.0" encoding="UTF-8"?><svg width="261px" height="261px" viewBox="0 0 261 261" version="1.1" xmlns="http://www.w3.org/2000/svg" xmlns:xlink="http://www.w3.org/1999/xlink"><g stroke="none" stroke-width="1" fill="none" fill-rule="evenodd"><path d="M0,14.9937017 C0,6.7129089 6.7182767,0 15.0053478,0 L71.9946522,0 C80.2818769,0 87,6.71400516 87,14.9937017 L87,246.006298 C87,254.287091 80.2817233,261 71.9946522,261 L15.0053478,261 C6.71812305,261 0,254.285995 0,246.006298 L0,14.9937017 Z M108.001214,87 C99.7162721,87 93,80.2817233 93,71.9946522 L93,15.0053478 C93,6.71812305 99.7155035,-2.84217094e-14 108.001214,-2.84217094e-14 L245.998786,-1.42108547e-14 C254.283728,-1.42108547e-14 261,6.7182767 261,15.0053478 L261,71.9946522 C261,80.2818769 254.284497,87 245.998786,87 L108.001214,87 Z M194.99832,261 C186.714976,261 180,254.284497 180,245.998786 L180,108.001214 C180,99.7162721 186.714758,93 194.99832,93 L246.00168,93 C254.285024,93 261,99.7155035 261,108.001214 L261,245.998786 C261,254.283728 254.285242,261 246.00168,261 L194.99832,261 Z M107.99832,261 C99.7149765,261 93,254.285242 93,246.00168 L93,194.99832 C93,186.714976 99.7147575,180 107.99832,180 L159.00168,180 C167.285024,180 174,186.714758 174,194.99832 L174,246.00168 C174,254.285024 167.285242,261 159.00168,261 L107.99832,261 Z M107.99832,174 C99.7149765,174 93,167.285242 93,159.00168 L93,107.99832 C93,99.7149765 99.7147575,93 107.99832,93 L159.00168,93 C167.285024,93 174,99.7147575 174,107.99832 L174,159.00168 C174,167.285024 167.285242,174 159.00168,174 L107.99832,174 Z" fill="#e74c3c"></path></g></svg>
